<?xml version="1.0" ?>
<!-- Uploaded to: SVG Repo, www.svgrepo.com, Generator: SVG Repo Mixer Tools -->
<svg width="800px" height="800px" viewBox="0 0 64 64" xmlns="http://www.w3.org/2000/svg">
<g id="a"/>
<g id="b"/>
<g id="c"/>
<g id="d"/>
<g id="e"/>
<g id="f"/>
<g id="g"/>
<g id="h"/>
<g id="i"/>
<g id="j"/>
<g id="k"/>
<g id="l"/>
<g id="m"/>
<g id="n"/>
<g id="o"/>
<g id="p"/>
<g id="q"/>
<g id="r"/>
<g id="s"/>
<g id="t"/>
<g id="u"/>
<g id="v"/>
<g id="w"/>
<g id="x"/>
<g id="y"/>
<g id="a`"/>
<g id="aa"/>
<g id="ab"/>
<g id="ac"/>
<g id="ad"/>
<g id="ae"/>
<g id="af"/>
<g id="ag"/>
<g id="ah"/>
<g id="ai"/>
<g id="aj"/>
<g id="ak"/>
<g id="al"/>
<g id="am"/>
<g id="an"/>
<g id="ao"/>
<g id="ap"/>
<g id="aq">
<path d="M46.09,35.65l-2.52,6.8,2.52,7.29h2.17c1.05,0,1.9-.85,1.9-1.9v-10.29c0-1.05-.85-1.9-1.9-1.9h-2.17Z" fill="#9fa9b6" fill-rule="evenodd"/>
<path d="M46.09,30.53v26.57c0,1.05-.85,1.9-1.9,1.9H7.78c-1.05,0-1.9-.85-1.9-1.9V30.53H46.09Z" fill="#8fd7f8" fill-rule="evenodd"/>
<path d="M5.88,30.53v4.45c0,1.42,1.14,2.56,2.56,2.56H43.53c1.42,0,2.56-1.14,2.56-2.56v-4.45H5.88Z" fill="#75cdf8" fill-rule="evenodd"/>
<path d="M8.44,5H43.53c1.42,0,2.56,1.14,2.56,2.56V30.53c0,1.41-1.14,2.55-2.56,2.55H8.44c-1.42,0-2.56-1.14-2.56-2.55V7.56c0-1.42,1.14-2.56,2.56-2.56Z" fill="#9fa9b6" fill-rule="evenodd"/>
<path d="M46.09,35.65h0c.96,.1,1.71,.91,1.71,1.9v10.29c0,.99-.75,1.8-1.71,1.89h2.17c1.05,.01,1.9-.84,1.9-1.89v-10.29c0-1.05-.85-1.9-1.9-1.9h-2.17Z" fill="#8996a8" fill-rule="evenodd"/>
<path d="M43.95,30.53v26.57c0,1.05-.85,1.9-1.9,1.9h2.14c1.05,0,1.9-.85,1.9-1.9V30.53h-2.14Z" fill="#75cdf8" fill-rule="evenodd"/>
<path d="M31.56,8.78l-2.77,9.86,2.77,10.67h11.16V8.78h-11.16Zm-22.31,0V29.31h11.16l3.62-6.98-3.62-13.55H9.25Z" fill="#f0f3f5" fill-rule="evenodd"/>
<rect fill="#e4ecf0" height="20.53" width="11.16" x="20.41" y="8.78"/>
<path d="M55.84,25.97c1.26,0,2.28,1.02,2.28,2.28v6.01c0,1.26-1.02,2.27-2.28,2.27s-2.28-1.01-2.28-2.27v-6.01c0-1.26,1.02-2.28,2.28-2.28Z" fill="#8996a8" fill-rule="evenodd"/>
<path d="M12.7,50.94h10.2c1.1,0,1.98,.88,1.98,1.98s-.88,1.97-1.98,1.97H12.7c-1.1,0-1.98-.88-1.98-1.97s.88-1.98,1.98-1.98Z" fill="#f0f3f5" fill-rule="evenodd"/>
<path d="M19.62,50.94c1.1,0,1.98,.88,1.98,1.98s-.88,1.97-1.98,1.97h3.27c1.1,0,1.98-.88,1.98-1.97s-.88-1.98-1.98-1.98h-3.27Z" fill="#e4ecf0" fill-rule="evenodd"/>
<path d="M41.4,5c1.42,0,2.56,1.14,2.56,2.56v25.49c1.22-.2,2.14-1.25,2.14-2.52V7.56c0-1.42-1.14-2.56-2.56-2.56h-2.14Z" fill="#8996a8" fill-rule="evenodd"/>
<path d="M10.73,33.08v11.81c0,1.26,1.01,2.28,2.28,2.28h9.59c1.26,0,2.28-1.02,2.28-2.28v-11.81H10.73Z" fill="#f5e680" fill-rule="evenodd"/>
<rect fill="#f2d865" height="4.46" width="14.15" x="10.73" y="33.08"/>
<path d="M47.09,7.56c0-1.96-1.6-3.56-3.56-3.56H8.44c-1.96,0-3.56,1.6-3.56,3.56V57.1c0,1.6,1.3,2.9,2.9,2.9H44.19c1.6,0,2.9-1.3,2.9-2.9v-6.36h1.17c1.6,0,2.9-1.3,2.9-2.9v-2.73h2.35c1.84,0,3.34-1.49,3.34-3.33v-4.45c1.31-.43,2.28-1.62,2.28-3.07v-6.01c0-1.81-1.47-3.28-3.28-3.28s-3.28,1.47-3.28,3.28v6.01c0,1.45,.97,2.64,2.28,3.07v4.45c0,.73-.6,1.33-1.34,1.33h-2.35v-5.56c0-1.6-1.3-2.9-2.9-2.9h-1.17V7.56Zm7.48,20.69c0-.71,.57-1.28,1.28-1.28s1.28,.57,1.28,1.28v6.01c0,.71-.56,1.27-1.28,1.27s-1.28-.56-1.28-1.27v-6.01ZM6.88,7.56c0-.86,.7-1.56,1.56-1.56H43.53c.86,0,1.56,.7,1.56,1.56V30.53c0,.85-.7,1.55-1.56,1.55H8.44c-.86,0-1.56-.7-1.56-1.55V7.56Zm4.85,26.52h12.15v10.81c0,.71-.57,1.28-1.28,1.28H13c-.7,0-1.28-.57-1.28-1.28v-10.81Zm33.37,23.02c0,.5-.41,.9-.9,.9H7.78c-.5,0-.9-.4-.9-.9v-23.42c.48,.24,.99,.4,1.56,.4h1.29v10.81c0,1.81,1.47,3.28,3.28,3.28h9.59c1.81,0,3.28-1.47,3.28-3.28v-10.81h17.66c.57,0,1.08-.16,1.56-.4v23.42Zm3.17-20.45c.5,0,.9,.4,.9,.9v10.29c0,.5-.4,.9-.9,.9h-1.17v-12.09h1.17Z"/>
<path d="M9.25,30.31H42.72c.55,0,1-.45,1-1V8.78c0-.55-.45-1-1-1H9.25c-.55,0-1,.45-1,1V29.31c0,.55,.45,1,1,1Zm32.47-2h-9.16V9.78h9.16V28.31ZM30.56,9.78V28.31h-9.16V9.78h9.16Zm-20.31,0h9.16V28.31H10.25V9.78Z"/>
<path d="M17.47,15.71c-.15-.38-.52-.62-.93-.62h-4.16c-.55,0-1,.45-1,1s.45,1,1,1h2.08c-.8,1.2-1.64,2.94-1.64,4.9,0,.55,.45,1,1,1s1-.45,1-1c0-2.77,2.39-5.16,2.42-5.19,.29-.28,.38-.72,.23-1.09Z"/>
<path d="M23.91,17.09h2.08c-.8,1.2-1.64,2.94-1.64,4.9,0,.55,.45,1,1,1s1-.45,1-1c0-2.77,2.39-5.16,2.42-5.19,.29-.28,.38-.72,.23-1.09-.15-.38-.52-.62-.93-.62h-4.16c-.55,0-1,.45-1,1s.45,1,1,1Z"/>
<path d="M35.42,17.09h2.08c-.8,1.2-1.64,2.94-1.64,4.9,0,.55,.45,1,1,1s1-.45,1-1c0-2.77,2.4-5.16,2.42-5.19,.29-.28,.38-.72,.23-1.09-.15-.38-.52-.62-.93-.62h-4.16c-.55,0-1,.45-1,1s.45,1,1,1Z"/>
<path d="M22.9,49.94H12.7c-1.64,0-2.98,1.34-2.98,2.98s1.33,2.97,2.98,2.97h10.2c1.64,0,2.98-1.33,2.98-2.97s-1.33-2.98-2.98-2.98Zm0,3.95H12.7c-.54,0-.98-.44-.98-.97s.43-.98,.98-.98h10.2c.55,0,.98,.43,.98,.98s-.44,.97-.98,.97Z"/>
<path d="M21.44,42.43c.55,0,1-.45,1-1v-2.61c0-.55-.45-1-1-1s-1,.45-1,1v2.61c0,.55,.45,1,1,1Z"/>
<path d="M33.71,49.52h6.54c.55,0,1-.45,1-1s-.45-1-1-1h-6.54c-.55,0-1,.45-1,1s.45,1,1,1Z"/>
<path d="M32.89,51.66l-.88,1.52c-.28,.48-.11,1.09,.37,1.37,.16,.09,.33,.13,.5,.13,.35,0,.68-.18,.87-.5l.88-1.52c.28-.48,.11-1.09-.37-1.37-.48-.28-1.09-.11-1.37,.37Z"/>
<path d="M36.29,51.66l-.88,1.52c-.28,.48-.11,1.09,.37,1.37,.16,.09,.33,.13,.5,.13,.35,0,.68-.18,.87-.5l.88-1.52c.28-.48,.11-1.09-.37-1.37-.48-.28-1.09-.11-1.37,.37Z"/>
<path d="M39.69,51.66l-.88,1.52c-.28,.48-.11,1.09,.37,1.37,.16,.09,.33,.13,.5,.13,.35,0,.68-.18,.87-.5l.88-1.52c.28-.48,.11-1.09-.37-1.37-.48-.28-1.09-.11-1.37,.37Z"/>
</g>
<g id="ar"/>
<g id="as"/>
<g id="at"/>
<g id="au"/>
<g id="av"/>
<g id="aw"/>
<g id="ax"/>
</svg>